HIERARCHY
ROOT Hips
{
	OFFSET 0.000000 0.000000 0.000000
	CHANNELS 6 Xposition Yposition Zposition Xrotation Yrotation Zrotation
	JOINT LeftUpLeg_virtual
	{
		OFFSET 0.000000 0.000000 0.000000
		CHANNELS 3 Xrotation Yrotation Zrotation
		JOINT LeftUpLeg
		{
			OFFSET 13.026900 -6.336304 -1.092800
			CHANNELS 3 Xrotation Yrotation Zrotation
			JOINT LeftLeg
			{
				OFFSET 0.524474 -46.096886 9.782700
				CHANNELS 3 Xrotation Yrotation Zrotation
				JOINT LeftFoot
				{
					OFFSET -0.524474 -53.427422 -12.948200
					CHANNELS 3 Xrotation Yrotation Zrotation
					JOINT LeftToeBase
					{
						OFFSET 0.192200 -14.009700 16.364100
						CHANNELS 3 Xrotation Yrotation Zrotation
						JOINT LeftToe_End
						{
							OFFSET -1.784700 -0.561700 9.474800
							CHANNELS 3 Xrotation Yrotation Zrotation
							End Site
							{
								OFFSET 0 0 0
							}
						}
					}
				}
			}
		}
	}
	JOINT RightUpLeg_virtual
	{
		OFFSET 0.000000 0.000000 0.000000
		CHANNELS 3 Xrotation Yrotation Zrotation
		JOINT RightUpLeg
		{
			OFFSET -12.883000 -6.336304 -1.092800
			CHANNELS 3 Xrotation Yrotation Zrotation
			JOINT RightLeg
			{
				OFFSET -0.524587 -46.096825 9.782800
				CHANNELS 3 Xrotation Yrotation Zrotation
				JOINT RightFoot
				{
					OFFSET 0.524587 -53.427383 -12.948300
					CHANNELS 3 Xrotation Yrotation Zrotation
					JOINT RightToeBase
					{
						OFFSET -0.192200 -14.009700 16.364100
						CHANNELS 3 Xrotation Yrotation Zrotation
						JOINT RightToe_End
						{
							OFFSET 1.784700 -0.561700 9.474800
							CHANNELS 3 Xrotation Yrotation Zrotation
							End Site
							{
								OFFSET 0 0 0
							}
						}
					}
				}
			}
		}
	}
	JOINT Spine_virtual
	{
		OFFSET 0.000000 0.000000 0.000000
		CHANNELS 3 Xrotation Yrotation Zrotation
		JOINT Spine
		{
			OFFSET 0.072000 7.257294 -0.789700
			CHANNELS 3 Xrotation Yrotation Zrotation
			JOINT Spine1
			{
				OFFSET 0.000000 12.508769 -0.658067
				CHANNELS 3 Xrotation Yrotation Zrotation
				JOINT Spine1_split
				{
					OFFSET 0.000000 12.508769 -0.658067
					CHANNELS 3 Xrotation Yrotation Zrotation
					JOINT Spine2
					{
						OFFSET 0.000000 12.508769 -0.658067
						CHANNELS 3 Xrotation Yrotation Zrotation
						JOINT Neck_virtual
						{
							OFFSET 0.000000 0.000000 0.000000
							CHANNELS 3 Xrotation Yrotation Zrotation
							JOINT Neck
							{
								OFFSET 0.000000 14.033295 7.520400
								CHANNELS 3 Xrotation Yrotation Zrotation
								JOINT Head
								{
									OFFSET 0.000000 8.198502 5.703100
									CHANNELS 3 Xrotation Yrotation Zrotation
									JOINT HeadTop_End
									{
										OFFSET 0.000000 17.760803 13.332701
										CHANNELS 3 Xrotation Yrotation Zrotation
										End Site
										{
											OFFSET 0 0 0
										}
									}
								}
							}
						}
						JOINT LeftShoulder_virtual
						{
							OFFSET 0.000000 0.000000 0.000000
							CHANNELS 3 Xrotation Yrotation Zrotation
							JOINT LeftShoulder
							{
								OFFSET 6.292450 5.785301 -0.669000
								CHANNELS 3 Xrotation Yrotation Zrotation
								JOINT LeftShoulder_split
								{
									OFFSET 6.292450 5.785301 -0.669000
									CHANNELS 3 Xrotation Yrotation Zrotation
									JOINT LeftArm
									{
										OFFSET 13.907140 -6.093903 1.965100
										CHANNELS 3 Xrotation Yrotation Zrotation
										JOINT LeftForeArm
										{
											OFFSET 34.140198 0.000000 0.000000
											CHANNELS 3 Xrotation Yrotation Zrotation
											JOINT LeftHand
											{
												OFFSET 40.960209 0.000000 0.000000
												CHANNELS 3 Xrotation Yrotation Zrotation
												End Site
												{
													OFFSET 0 0 0
												}
											}
										}
									}
								}
							}
						}
						JOINT RightShoulder_virtual
						{
							OFFSET 0.000000 0.000000 0.000000
							CHANNELS 3 Xrotation Yrotation Zrotation
							JOINT RightShoulder
							{
								OFFSET -6.292450 5.785301 -0.669000
								CHANNELS 3 Xrotation Yrotation Zrotation
								JOINT RightShoulder_split
								{
									OFFSET -6.292450 5.785301 -0.669000
									CHANNELS 3 Xrotation Yrotation Zrotation
									JOINT RightArm
									{
										OFFSET -13.907140 -6.093903 1.965100
										CHANNELS 3 Xrotation Yrotation Zrotation
										JOINT RightForeArm
										{
											OFFSET -34.140198 0.000000 0.000000
											CHANNELS 3 Xrotation Yrotation Zrotation
											JOINT RightHand
											{
												OFFSET -40.960209 0.000000 0.000000
												CHANNELS 3 Xrotation Yrotation Zrotation
												End Site
												{
													OFFSET 0 0 0
												}
											}
										}
									}
								}
							}
						}
					}
				}
			}
		}
	}
}
MOTION
Frames: 8
Frame Time: 0.03333333
0.357827 96.318924 -1.819752 0.000000 0.000000 0.000000 -5.162476 -64.116365 -4.009679 -35.505454 7.758274 32.542593 43.572003 -8.934098 -7.169644 -5.701476 -2.719723 -7.826117 -0.959354 0.413054 0.049829 0.000000 0.000000 0.000000 -5.948793 -62.919771 -4.066078 -31.566378 -6.817386 -25.144725 47.499878 7.019230 -5.484292 -13.647160 1.351542 22.578580 1.504247 0.174950 0.455693 0.000000 0.000000 0.000000 -4.762826 -61.696593 -3.221544 10.007812 2.137844 -0.977969 7.579447 0.336038 -5.117131 0.512582 -1.973786 1.123187 0.000000 0.000000 0.000000 7.872794 0.727184 -4.901047 -25.453584 23.040607 11.492101 -3.507163 26.247748 -3.076167 0.000000 0.000000 0.000000 8.911227 0.456422 -4.643635 -5.673305 -9.941573 -1.490890 -2.266577 -1.197373 -2.284517 -18.045110 3.696186 -34.902567 4.916996 -49.407994 2.732837 0.000000 0.000000 0.000000 8.472394 0.404582 -4.943560 -4.059975 11.932130 2.042785 1.938181 1.092483 0.687055 -38.834588 -25.062935 32.343111 -157.150632 65.004304 157.648785 0.000000 0.000000 0.000000 
0.288156 96.274521 -1.843014 0.000000 0.000000 0.000000 -4.811426 -63.979420 -3.236609 -34.994669 7.531834 31.859253 42.827926 -8.637388 -7.223433 -5.483887 -2.494818 -8.010699 -0.712228 0.420302 -0.036183 0.000000 0.000000 0.000000 -5.616947 -62.998960 -3.310163 -31.998729 -6.419670 -25.818767 47.857216 7.230035 -5.469042 -13.937670 1.642883 22.698730 1.513164 0.209056 0.457313 0.000000 0.000000 0.000000 -4.012740 -61.413666 -2.293456 9.885877 2.177066 -0.775316 8.069947 0.440003 -4.992602 0.474229 -1.916685 1.200894 0.000000 0.000000 0.000000 8.207283 0.862225 -4.832232 -23.468284 23.129322 11.890165 -2.720064 25.685990 -2.850638 0.000000 0.000000 0.000000 9.304174 0.509141 -4.542659 -5.800148 -10.519618 -2.216172 -2.138769 -0.993922 -2.327473 -16.562743 4.983908 -34.918294 5.272013 -49.740815 2.793678 0.000000 0.000000 0.000000 8.837997 0.522901 -4.753857 -4.130078 12.047086 2.702375 1.554391 0.990120 0.584407 -39.551317 -24.657131 30.973839 -157.360141 64.217985 158.118469 0.000000 0.000000 0.000000 
0.194294 96.468895 -1.819511 0.000000 0.000000 0.000000 -4.169821 -63.859974 -2.189513 -34.486892 7.239504 31.028562 41.793419 -8.399461 -7.143791 -5.073060 -2.382374 -8.430693 -0.519382 0.426077 -0.100508 0.000000 0.000000 0.000000 -5.083031 -63.020072 -2.347120 -32.245060 -6.186297 -26.396951 47.928967 7.301436 -5.354922 -14.117424 1.749232 22.782245 1.429226 0.229281 0.446452 0.000000 0.000000 0.000000 -3.175872 -61.072430 -1.276962 9.790955 2.161114 -0.688072 8.486254 0.505671 -4.872918 0.496786 -2.147294 1.255402 0.000000 0.000000 0.000000 8.571891 0.952163 -4.737401 -22.001412 23.250357 11.961555 -2.090818 24.922343 -2.829378 0.000000 0.000000 0.000000 9.659993 0.520925 -4.403347 -5.912581 -10.968927 -2.736100 -2.160951 -0.584283 -2.400850 -15.332262 5.718814 -35.031808 5.752853 -48.866165 2.988974 0.000000 0.000000 0.000000 9.090894 0.590287 -4.560575 -4.191063 11.752027 3.238383 1.035868 0.884723 0.684380 -40.086001 -23.504935 30.298309 -156.877069 64.269280 157.773367 0.000000 0.000000 0.000000 
0.114591 96.753998 -1.757317 0.000000 0.000000 0.000000 -3.514319 -63.694772 -1.180954 -34.130708 6.915958 30.184699 40.840898 -8.230258 -6.950115 -4.639702 -2.380008 -8.995988 -0.483096 0.430122 -0.111193 0.000000 0.000000 0.000000 -4.515203 -62.980689 -1.405027 -32.297437 -6.038992 -26.771036 47.935449 7.228507 -5.196768 -14.334168 1.640844 22.798178 1.313824 0.231673 0.433212 0.000000 0.000000 0.000000 -2.532486 -60.712595 -0.441362 9.780078 2.082467 -0.714126 8.821973 0.499475 -4.794830 0.616448 -2.519657 1.213328 0.000000 0.000000 0.000000 8.963146 0.965381 -4.673834 -21.156974 23.402644 11.807907 -1.563767 24.220098 -3.041590 0.000000 0.000000 0.000000 9.988694 0.461454 -4.280762 -5.990394 -11.289362 -3.035384 -2.238768 -0.094141 -2.580991 -14.644655 5.908632 -34.964435 6.052938 -47.110625 3.117991 0.000000 0.000000 0.000000 9.283571 0.566280 -4.422488 -4.231080 11.183659 3.570445 0.607885 0.800252 0.878316 -40.532702 -22.167819 30.320367 -156.578877 64.520767 157.488098 0.000000 0.000000 0.000000 
0.061426 96.982468 -1.648521 0.000000 0.000000 0.000000 -2.939260 -63.506129 -0.335398 -34.008526 6.632450 29.444573 40.260485 -8.052918 -6.722640 -4.333281 -2.439277 -9.519662 -0.618221 0.436896 -0.064535 0.000000 0.000000 0.000000 -3.979243 -62.826498 -0.593300 -32.172274 -5.918071 -26.959860 47.950728 7.062329 -5.048954 -14.630129 1.371170 22.797498 1.176361 0.224683 0.421966 0.000000 0.000000 0.000000 -2.220648 -60.410277 0.102906 9.872209 1.947270 -0.834899 9.061422 0.415652 -4.788515 0.813253 -2.955269 1.160901 0.000000 0.000000 0.000000 9.353863 0.897850 -4.668912 -20.813326 23.569175 11.559050 -1.098047 23.730705 -3.427351 0.000000 0.000000 0.000000 10.293831 0.344608 -4.230429 -6.028200 -11.420378 -3.179663 -2.289345 0.302146 -2.724597 -14.458127 5.774540 -34.624848 5.961724 -45.060045 3.021541 0.000000 0.000000 0.000000 9.470964 0.454895 -4.394443 -4.258818 10.538155 3.691037 0.540485 0.849822 1.139055 -40.856795 -21.233281 30.972425 -157.020257 64.517987 157.817873 0.000000 0.000000 0.000000 
0.029335 97.083267 -1.511440 0.000000 0.000000 0.000000 -2.492206 -63.308217 0.317555 -34.137627 6.465380 28.870537 40.080503 -7.833336 -6.533199 -4.214391 -2.470926 -9.852766 -0.823805 0.450360 0.016962 0.000000 0.000000 0.000000 -3.479679 -62.569027 0.083408 -31.934310 -5.762944 -27.033542 47.995579 6.875617 -4.952388 -14.975277 1.014088 22.855509 1.070218 0.209470 0.407837 0.000000 0.000000 0.000000 -2.157527 -60.175210 0.440535 10.038443 1.784846 -1.014796 9.203796 0.284683 -4.860376 0.807264 -3.137265 1.134809 0.000000 0.000000 0.000000 9.682426 0.771286 -4.739146 -20.736407 23.707651 11.307236 -0.547854 23.450934 -3.856204 0.000000 0.000000 0.000000 10.558198 0.198712 -4.279924 -6.044336 -11.367713 -3.243032 -2.290980 0.630879 -2.979563 -14.607890 5.667836 -34.078682 5.432546 -43.199263 2.678199 0.000000 0.000000 0.000000 9.653087 0.285061 -4.488435 -4.283609 10.026000 3.664581 0.779524 0.812104 1.402525 -40.998904 -20.977700 32.086330 -158.158590 64.229009 158.747352 0.000000 0.000000 0.000000 
-0.011858 97.040703 -1.334507 0.000000 0.000000 0.000000 -2.105806 -63.100662 0.868440 -34.392724 6.480639 28.499268 40.169838 -7.593876 -6.434979 -4.261660 -2.474630 -9.944718 -1.018213 0.461784 0.111297 0.000000 0.000000 0.000000 -3.031971 -62.340462 0.665334 -31.715543 -5.523062 -27.104180 48.085034 6.748121 -4.924658 -15.302989 0.653170 23.018923 1.043505 0.197953 0.383516 0.000000 0.000000 0.000000 -2.165239 -60.031885 0.729412 10.242232 1.628472 -1.230172 9.263155 0.144086 -4.987585 0.724986 -3.165259 1.127201 0.000000 0.000000 0.000000 9.912053 0.625556 -4.872948 -20.673582 23.795732 11.111071 0.069970 23.370744 -4.185447 0.000000 0.000000 0.000000 10.749746 0.060306 -4.415622 -6.040674 -11.232744 -3.250324 -2.210322 0.921655 -3.347276 -14.860856 5.801259 -33.460373 4.650623 -41.816556 2.198775 0.000000 0.000000 0.000000 9.830368 0.106631 -4.662208 -4.313544 9.803994 3.535237 1.220549 0.642580 1.618498 -41.005341 -21.345939 33.327597 -159.556634 63.801207 159.860277 0.000000 0.000000 0.000000 
-0.066911 96.904617 -1.136269 0.000000 0.000000 0.000000 -1.656098 -62.941785 1.474945 -34.675299 6.655652 28.298964 40.358693 -7.366185 -6.436273 -4.368899 -2.457573 -9.818242 -1.119751 0.468491 0.191976 0.000000 0.000000 0.000000 -2.561581 -62.137783 1.257046 -31.596633 -5.208569 -27.276217 48.210781 6.699934 -4.945224 -15.570605 0.308986 23.291608 1.108719 0.193902 0.339298 0.000000 0.000000 0.000000 -2.047726 -59.949397 1.154421 10.447976 1.509037 -1.452106 9.271586 0.034992 -5.134620 0.603606 -3.078630 1.152527 0.000000 0.000000 0.000000 10.043207 0.503923 -5.019369 -20.518091 23.803037 10.988518 0.689437 23.393091 -4.361575 0.000000 0.000000 0.000000 10.868434 -0.039407 -4.595495 -6.029781 -11.093709 -3.174639 -2.091022 1.105446 -3.626967 -15.117125 6.245709 -33.034644 3.823871 -40.949525 1.719420 0.000000 0.000000 0.000000 9.982218 -0.024013 -4.860833 -4.341141 9.939849 3.379280 1.635022 0.374713 1.830790 -40.797359 -22.041919 34.500474 -160.635353 63.536517 160.604549 0.000000 0.000000 0.000000 
